<?xml version="1.0" standalone="no"?>
<!DOCTYPE svg PUBLIC "-//W3C//DTD SVG 20010904//EN"
 "http://www.w3.org/TR/2001/REC-SVG-20010904/DTD/svg10.dtd">
<svg version="1.0" xmlns="http://www.w3.org/2000/svg"
 width="32.000000pt" height="32.000000pt" viewBox="0 0 512.000000 512.000000"
 preserveAspectRatio="xMidYMid meet">
<metadata>
Created by potrace 1.16, written by Peter Selinger 2001-2019
</metadata>
<g transform="translate(0.000000,512.000000) scale(0.100000,-0.100000)"
fill="#000000" stroke="none">
<path d="M2305 5105 c-693 -109 -1238 -666 -1335 -1365 -14 -98 -13 -358 0
-452 16 -107 65 -284 103 -375 47 -110 1477 -2913 1487 -2913 10 0 1440 2801
1487 2913 42 100 88 273 104 393 19 143 6 435 -24 564 -34 145 -60 217 -121
346 -231 482 -696 823 -1219 893 -104 14 -382 12 -482 -4z m518 -669 c315 -94
557 -335 653 -651 26 -84 28 -102 28 -265 0 -162 -2 -182 -27 -263 -98 -317
-337 -557 -652 -653 -84 -26 -102 -28 -265 -28 -163 0 -181 2 -265 28 -315 96
-554 336 -652 653 -25 81 -27 101 -27 263 0 163 2 181 28 265 79 259 259 472
501 592 144 72 251 93 440 89 127 -3 164 -8 238 -30z"/>
</g>
</svg>
